<?xml version="1.0" encoding="utf-8"?>
<!-- Generator: Adobe Illustrator 23.0.6, SVG Export Plug-In . SVG Version: 6.00 Build 0)  -->
<svg version="1.1" id="Layer_1" xmlns="http://www.w3.org/2000/svg" xmlns:xlink="http://www.w3.org/1999/xlink" x="0px" y="0px"
	 width="136px" height="196px" viewBox="0 0 136 196" style="enable-background:new 0 0 136 196;" xml:space="preserve">
<style type="text/css">
	.st0{fill:#0D122A;}
	.st1{fill:none;}
</style>
<g>
	<g>
		<g>
			<path class="st0" d="M93.9808,67.9277c0,14.3488-11.632,25.9809-25.9808,25.9809c-14.3489,0-25.981-11.6321-25.981-25.9809
				c0-14.349,11.6321-25.981,25.981-25.981C82.3488,41.9467,93.9808,53.5787,93.9808,67.9277z M68,34.1525
				c-18.6536,0-33.7751,15.1217-33.7751,33.7752S49.3464,101.7028,68,101.7028s33.7752-15.1216,33.7752-33.7751
				S86.6536,34.1525,68,34.1525z"/>
			<path class="st0" d="M92.6818,67.9277c0,13.6314-11.0503,24.6817-24.6818,24.6817c-13.6314,0-24.6819-11.0503-24.6819-24.6817
				c0-13.6315,11.0505-24.6819,24.6819-24.6819C81.6315,43.2458,92.6818,54.2962,92.6818,67.9277z M68,51.0402
				c-9.3267,0-16.8876,7.5607-16.8876,16.8875S58.6733,84.8153,68,84.8153s16.8876-7.5608,16.8876-16.8876
				S77.3267,51.0402,68,51.0402z"/>
		</g>
		<g>
			<g>
				<g>
					<g>
						<path class="st0" d="M34.2249,161.8259V141.4501h3.9194v16.8812h11.6606v3.4946H34.2249z"/>
						<path class="st0" d="M65.1245,161.8259l-0.098-2.18849h-0.0653c-1.1105,1.5679-3.0376,2.51509-5.5201,2.51509
							c-4.3768,0-7.5777-3.33159-7.5777-7.96939c0-4.6382,3.2009-8.00261,7.5777-8.00261c2.4825,0,4.377,0.94701,5.4874,2.51511
							h0.0654l0.1306-2.1886h2.8744v15.31889H65.1245z M64.6344,154.18311c0-2.9075-1.8943-4.8997-4.6379-4.8997
							c-2.7438,0-4.6381,1.9922-4.6381,4.8997c0,2.84149,1.8943,4.86639,4.6381,4.86639
							C62.7401,159.0495,64.6344,157.0246,64.6344,154.18311z"/>
						<path class="st0" d="M87.9282,154.18311c0,4.6378-3.2009,7.96939-7.5777,7.96939c-2.5153,0-4.4097-0.94719-5.5202-2.51509
							H74.765l-0.0978,2.18849h-2.9071V141.4501h3.4623v6.6899h0.0653c1.1433-1.2411,2.84161-1.9595,5.06281-1.9595
							C84.7273,146.1805,87.9282,149.54491,87.9282,154.18311z M84.4332,154.18311c0-2.9075-1.9268-4.8997-4.638-4.8997
							c-2.7438,0-4.6709,1.9922-4.6709,4.8997c0,2.84149,1.9271,4.86639,4.6709,4.86639
							C82.5064,159.0495,84.4332,157.0246,84.4332,154.18311z"/>
						<path class="st0" d="M101.7795,147.2912v3.55991h-0.1631c-1.0453-1.0775-2.6459-1.6331-4.6382-1.6331
							c-1.6658,0-2.84171,0.7514-2.84171,1.82939c0,0.8817,0.68591,1.27351,2.9395,1.40451
							c4.0829,0.2287,5.6835,1.7312,5.6835,4.834c0,3.0049-2.3191,4.86659-6.1408,4.86659c-2.5474,0-4.54-0.52249-5.8139-1.50229
							v-3.62561h0.1633c1.2738,1.3717,3.1357,2.0903,5.4873,2.0903c1.7966,0,2.9072-0.7186,2.9072-1.82899
							c0-1.01241-0.686-1.46971-3.1685-1.66571c-3.9848-0.3268-5.4545-1.56819-5.4545-4.4751c0-3.0051,2.4496-4.9646,6.1406-4.9646
							C98.8725,146.1805,100.6691,146.57249,101.7795,147.2912z"/>
					</g>
				</g>
				<g>
					<path class="st0" d="M42.8159,113.0502c5.2588,0,7.9697,2.3843,7.9697,7.0225c0,4.6053-2.7109,6.99-7.9697,6.99h-4.6716v6.882
						h-3.9194v-20.8945H42.8159z M42.6526,123.5673c2.8417,0,4.1809-1.1429,4.1809-3.4947c0-2.3843-1.3392-3.5278-4.1809-3.5278
						h-4.5083v7.0225H42.6526z"/>
					<path class="st0" d="M65.0918,133.9447l-0.1306-2.319H64.896c-0.9801,1.6985-2.71111,2.6454-5.1283,2.6454
						c-3.8541,0-6.1406-2.4821-6.1406-6.6631v-9.0225h3.4622v8.6306c0,2.48229,1.3066,3.9521,3.5603,3.9521
						c2.4498,0,3.8871-1.69839,3.8871-4.5073v-8.07539h3.4622v15.3592H65.0918z"/>
					<path class="st0" d="M98.3129,113.0502h3.4623v20.8945h-3.4623V113.0502z"/>
					<path class="st0" d="M94.2628,118.5855v15.3592h-3.4624v-15.3592H94.2628z"/>
					<path class="st0" d="M87.9282,126.3018c0,4.6377-3.2009,7.9693-7.5777,7.9693c-2.2212,0-3.9195-0.71831-5.06281-1.9594h-0.0653
						v6.67969h-3.4623V118.5855h2.9071l0.0978,2.1885h0.0655c1.11031-1.568,3.0047-2.5149,5.52-2.5149
						C84.7273,118.2591,87.9282,121.6635,87.9282,126.3018z M84.4332,126.265c0-2.9073-1.9268-4.903-4.6381-4.903
						c-2.7437,0-4.6708,1.9957-4.6708,4.903c0,2.84171,1.9271,4.9032,4.6708,4.9032
						C82.5064,131.1682,84.4332,129.1067,84.4332,126.265z"/>
					<rect x="90.8004" y="113.0521" class="st0" width="3.4624" height="3.4623"/>
				</g>
			</g>
		</g>
	</g>
	<rect class="st1" width="136" height="196"/>
</g>
</svg>
