<?xml version="1.0" encoding="UTF-8" standalone="no"?>
<!-- Created with Inkscape (http://www.inkscape.org/) -->

<svg
   width="210mm"
   height="297mm"
   viewBox="0 0 210 297"
   version="1.1"
   id="svg5"
   xmlns="http://www.w3.org/2000/svg"
   xmlns:svg="http://www.w3.org/2000/svg">
  <defs
     id="defs2" />
  <g
     id="layer1">
    <g
       aria-label="S"
       id="text133"
       style="font-size:50.8px;-inkscape-font-specification:'sans-serif, Normal';stroke-width:0.264583">
      <path
         d="m 107.08212,88.143541 v 4.886524 q -2.85254,-1.364258 -5.38261,-2.033984 -2.530081,-0.669727 -4.886527,-0.669727 -4.092773,0 -6.325195,1.5875 -2.207617,1.5875 -2.207617,4.514453 0,2.455664 1.463477,3.720703 1.488281,1.24023 5.605859,2.00918 l 3.026172,0.62012 q 5.605861,1.0666 8.259961,3.77031 2.67891,2.67891 2.67891,7.19336 0,5.38262 -3.62149,8.16074 -3.59668,2.77813 -10.566795,2.77813 -2.629297,0 -5.60586,-0.59532 -2.951757,-0.59531 -6.126757,-1.76113 v -5.15937 q 3.050976,1.71152 5.977929,2.57968 2.926953,0.86817 5.754688,0.86817 4.291211,0 6.622855,-1.68672 2.33164,-1.68672 2.33164,-4.81211 0,-2.72852 -1.68672,-4.26641 -1.66192,-1.53789 -5.481838,-2.30683 l -3.050976,-0.59532 q -5.60586,-1.11621 -8.111133,-3.49746 -2.505273,-2.38125 -2.505273,-6.622848 0,-4.911328 3.447851,-7.739062 3.472656,-2.827735 9.549805,-2.827735 2.604492,0 5.308204,0.471289 2.70371,0.471289 5.53144,1.413867 z"
         id="path191"
         style="image-rendering:auto" />
    </g>
  </g>
</svg>
